<?xml version="1.0" encoding="UTF-8"?>
<svg version="1.1" xmlns="http://www.w3.org/2000/svg" width="2085" height="2085">
<path d="M0 0 C1.71918323 0.00716102 1.71918323 0.00716102 3.47309744 0.0144667 C4.43691672 0.00616527 4.43691672 0.00616527 5.42020708 -0.00230387 C7.58334217 -0.01355463 9.74371874 0.01821068 11.90662444 0.04963726 C13.46946653 0.05043525 15.03231183 0.04859519 16.59514832 0.04433858 C20.89870617 0.04030169 25.2012858 0.0738671 29.50463378 0.11341983 C34.14483887 0.1495432 38.78506864 0.15103839 43.42539275 0.1567387 C52.53112931 0.17335549 61.6364354 0.22186049 70.74198715 0.28053004 C81.38219904 0.3476786 92.02243865 0.38148246 102.6628048 0.41346978 C121.69967065 0.4716594 140.73631184 0.55734312 159.77298796 0.65960735 C178.15315442 0.75829676 196.53329614 0.84245289 214.91361296 0.90765423 C216.60249424 0.91365113 216.60249424 0.91365113 218.32549433 0.91976918 C222.85432848 0.93580357 227.38316285 0.9517701 231.91199758 0.96763796 C252.70537482 1.04076541 273.49870931 1.12518531 294.29203093 1.21258587 C295.85750942 1.21913058 295.85750942 1.21913058 297.45461375 1.22580752 C391.29015892 1.6193793 391.29015892 1.6193793 429.08109343 2.73992962 C424.71577277 9.33465266 424.71577277 9.33465266 422.38187468 12.00164837 C421.89976531 12.5572343 421.41765593 13.11282024 420.92093718 13.68524212 C420.41691374 14.26016399 419.91289031 14.83508587 419.39359343 15.42742962 C415.72909999 19.65227036 412.10271619 23.89423426 408.58109343 28.23992962 C404.64730773 33.08589751 400.59661584 37.8209149 396.52249968 42.54852337 C393.49151059 46.07310865 390.51116762 49.63041794 387.58109343 53.23992962 C383.64730773 58.08589751 379.59661584 62.8209149 375.52249968 67.54852337 C372.49151059 71.07310865 369.51116762 74.63041794 366.58109343 78.23992962 C362.64730773 83.08589751 358.59661584 87.8209149 354.52249968 92.54852337 C351.49151059 96.07310865 348.51116762 99.63041794 345.58109343 103.23992962 C341.64730773 108.08589751 337.59661584 112.8209149 333.52249968 117.54852337 C330.49151059 121.07310865 327.51116762 124.63041794 324.58109343 128.23992962 C320.64730773 133.08589751 316.59661584 137.8209149 312.52249968 142.54852337 C309.49151059 146.07310865 306.51116762 149.63041794 303.58109343 153.23992962 C300.1490133 157.46785442 296.63558172 161.61520852 293.08109343 165.73992962 C288.7593648 170.7558465 284.52630147 175.83168261 280.35062468 180.97039837 C275.53420404 186.84792372 270.58615043 192.61604876 265.66507781 198.40594524 C260.94589733 203.96060995 256.24034294 209.52052887 251.64359343 215.17742962 C247.68601155 220.04121987 243.61566897 224.79874193 239.52274382 229.54827923 C236.49164054 233.0729188 233.51124027 236.63032844 230.58109343 240.23992962 C226.64730773 245.08589751 222.59661584 249.8209149 218.52249968 254.54852337 C215.49151059 258.07310865 212.51116762 261.63041794 209.58109343 265.23992962 C206.1490133 269.46785442 202.63558172 273.61520852 199.08109343 277.73992962 C194.7593648 282.7558465 190.52630147 287.83168261 186.35062468 292.97039837 C181.53420404 298.84792372 176.58615043 304.61604876 171.66507781 310.40594524 C166.94589733 315.96060995 162.24034294 321.52052887 157.64359343 327.17742962 C153.68601155 332.04121987 149.61566897 336.79874193 145.52274382 341.54827923 C142.49164054 345.0729188 139.51124027 348.63032844 136.58109343 352.23992962 C133.1490133 356.46785442 129.63558172 360.61520852 126.08109343 364.73992962 C121.7593648 369.7558465 117.52630147 374.83168261 113.35062468 379.97039837 C108.53420404 385.84792372 103.58615043 391.61604876 98.66507781 397.40594524 C87.60476565 410.35652905 87.60476565 410.35652905 77.08109343 423.73992962 C214.36109343 423.73992962 351.64109343 423.73992962 493.08109343 423.73992962 C488.62320803 432.65570042 479.77834867 438.67085585 472.08109343 444.73992962 C471.43881804 445.24798137 470.79654265 445.75603313 470.13480437 446.2794804 C458.63544654 455.35608505 446.90676211 464.09504099 435.08109343 472.73992962 C422.97507316 481.60558568 410.95700483 490.56800533 399.08109343 499.73992962 C398.34503874 500.30711712 397.60898406 500.87430462 396.85062468 501.45867962 C388.08716491 508.21604618 379.40466091 515.057824 370.83426726 522.05853313 C364.31973965 527.37623392 357.7138288 532.57087599 351.08109343 537.73992962 C350.39289519 538.27730755 349.70469695 538.81468548 348.99564421 539.36834759 C338.83126643 547.3046684 328.62305593 555.18128511 318.36624968 562.99774212 C315.92616492 564.85804606 313.48794482 566.72077718 311.04984343 568.58367962 C302.36100901 575.21808309 293.65126151 581.82161885 284.89359343 588.36492962 C276.2179141 594.85191173 267.64376004 601.46096496 259.11820281 608.14373821 C257.21742968 609.63310238 255.31378759 611.11870617 253.40921843 612.60321087 C246.57899653 617.93642402 239.82885175 623.36162386 233.10965788 628.83392376 C222.72564156 637.29085461 212.27712862 645.64001456 201.61942351 653.75042766 C196.49613158 657.65017798 191.40646421 661.59056443 186.33109343 665.55242962 C173.62361471 675.46056761 160.80571736 685.22508964 147.89359343 694.86492962 C140.63022245 700.2891334 133.47555318 705.84794676 126.33109343 711.42742962 C122.70137503 714.26132741 119.05176827 717.06793706 115.39359343 719.86492962 C110.09442421 723.93095883 104.87714157 728.09129694 99.67069304 732.27508587 C93.5441712 737.18956865 87.32216994 741.97233347 81.08109343 746.73992962 C72.94003213 752.98313841 64.82931351 759.2638419 56.73465788 765.56707805 C51.33447708 769.77032627 45.91549643 773.94786266 40.48734343 778.11492962 C36.33867975 781.30620937 32.21076862 784.52414261 28.08109343 787.73992962 C21.8996322 792.55344685 15.70187461 797.34417841 9.48734343 802.11492962 C5.33867975 805.30620937 1.21076862 808.52414261 -2.91890657 811.73992962 C-9.1003678 816.55344685 -15.29812539 821.34417841 -21.51265657 826.11492962 C-25.66132025 829.30620937 -29.78923138 832.52414261 -33.91890657 835.73992962 C-40.1003678 840.55344685 -46.29812539 845.34417841 -52.51265657 850.11492962 C-56.66132025 853.30620937 -60.78923138 856.52414261 -64.91890657 859.73992962 C-71.1003678 864.55344685 -77.29812539 869.34417841 -83.51265657 874.11492962 C-87.66132025 877.30620937 -91.78923138 880.52414261 -95.91890657 883.73992962 C-102.1003678 888.55344685 -108.29812539 893.34417841 -114.51265657 898.11492962 C-118.66132025 901.30620937 -122.78923138 904.52414261 -126.91890657 907.73992962 C-132.07448009 911.75458587 -137.23574885 915.76093985 -142.41890657 919.73992962 C-149.8292332 925.43016788 -157.19917471 931.17200912 -164.57076204 936.9122929 C-166.9058864 938.7297956 -169.24225367 940.54568749 -171.57906282 942.36102337 C-180.15022917 949.02022315 -188.70538071 955.69885427 -197.23335969 962.41326946 C-199.5410821 964.2296315 -201.85042989 966.04392071 -204.15987337 967.85809368 C-205.33072186 968.77787196 -206.50145791 969.69779339 -207.6720804 970.6178593 C-210.57436298 972.89888909 -213.47781953 975.1783926 -216.38375032 977.45477337 C-221.73585755 981.64993304 -227.07532982 985.85821541 -232.37398469 990.12078899 C-238.30562008 994.8922938 -244.29225652 999.5753269 -250.35640657 1004.17742962 C-256.6435244 1008.9499139 -262.79732628 1013.85821135 -268.89913118 1018.86468548 C-273.66403006 1022.75909086 -278.5142782 1026.52347261 -283.41890657 1030.23992962 C-289.77844953 1035.05902087 -296.00352174 1040.01588724 -302.17623079 1045.07147259 C-307.28513736 1049.24803221 -312.48223841 1053.29159048 -317.72750032 1057.29461712 C-321.04521756 1059.82851729 -324.32778612 1062.40574243 -327.60640657 1064.98992962 C-335.24618694 1071.00762358 -342.92451032 1076.97528635 -350.60445344 1082.94158977 C-354.37706291 1085.87292324 -358.14791012 1088.80652159 -361.91890657 1091.73992962 C-363.4188978 1092.90660756 -364.91889781 1094.07327421 -366.41890657 1095.23992962 C-367.16140657 1095.81742962 -367.90390657 1096.39492962 -368.66890657 1096.98992962 C-370.91890657 1098.73992962 -373.16890657 1100.48992962 -375.41890657 1102.23992962 C-376.1618094 1102.81775188 -376.90471223 1103.39557415 -377.67012727 1103.99090618 C-379.16602319 1105.15436273 -380.66195402 1106.31777439 -382.15792024 1107.48114055 C-385.97100433 1110.44654959 -389.78342721 1113.41280224 -393.59468782 1116.38055462 C-402.34788176 1123.19532499 -411.11248492 1129.99399294 -419.91890657 1136.73992962 C-420.53491731 1137.21188762 -421.15092805 1137.68384563 -421.78560579 1138.1701054 C-431.12382429 1145.32224256 -440.475529 1152.45668366 -449.83443391 1159.58172649 C-454.31163348 1162.99029071 -458.78628316 1166.40207691 -463.25484407 1169.82196087 C-473.94861756 1178.00042168 -484.71577172 1186.0663628 -495.57613313 1194.02215618 C-499.52920764 1196.92063807 -503.47352267 1199.83099341 -507.41890657 1202.73992962 C-509.00091735 1203.90532198 -510.5829486 1205.07068657 -512.16500032 1206.23602337 C-515.34641268 1208.58004979 -518.52591273 1210.92663843 -521.70406282 1213.27508587 C-535.66219257 1223.58453401 -549.64139026 1233.87481156 -563.91890657 1243.73992962 C-564.57890657 1243.40992962 -565.23890657 1243.07992962 -565.91890657 1242.73992962 C-558.21226291 1231.77011251 -550.42588573 1220.86219933 -542.56001985 1210.0060429 C-539.84242484 1206.25348162 -537.13096184 1202.49649542 -534.41890657 1198.73992962 C-533.33560295 1197.23990815 -532.25226961 1195.73990816 -531.16890657 1194.23992962 C-530.63265657 1193.49742962 -530.09640657 1192.75492962 -529.54390657 1191.98992962 C-524.66890657 1185.23992961 -524.66890657 1185.23992961 -523.04317415 1182.98895305 C-521.96223466 1181.49224261 -520.88134256 1179.99549794 -519.80049837 1178.49871868 C-517.05593117 1174.69810324 -514.31048691 1170.89812663 -511.56343782 1167.09930462 C-506.66545323 1160.32452219 -501.77146569 1153.5473486 -496.91890657 1146.73992962 C-491.51092538 1139.15333604 -486.05163529 1131.60402821 -480.59224641 1124.05438274 C-477.8662752 1120.28399945 -475.14266108 1116.51191443 -472.41890657 1112.73992962 C-469.13496696 1108.19217383 -465.85045612 1103.64483587 -462.56343782 1099.09930462 C-457.66545323 1092.32452219 -452.77146569 1085.5473486 -447.91890657 1078.73992962 C-442.51092538 1071.15333604 -437.05163529 1063.60402821 -431.59224641 1056.05438274 C-428.8662752 1052.28399945 -426.14266108 1048.51191443 -423.41890657 1044.73992962 C-420.13496696 1040.19217383 -416.85045612 1035.64483587 -413.56343782 1031.09930462 C-408.66545323 1024.32452219 -403.77146569 1017.5473486 -398.91890657 1010.73992962 C-393.51092538 1003.15333604 -388.05163529 995.60402821 -382.59224641 988.05438274 C-379.8662752 984.28399945 -377.14266108 980.51191443 -374.41890657 976.73992962 C-371.13496696 972.19217383 -367.85045612 967.64483587 -364.56343782 963.09930462 C-359.66545323 956.32452219 -354.77146569 949.5473486 -349.91890657 942.73992962 C-344.51092538 935.15333604 -339.05163529 927.60402821 -333.59224641 920.05438274 C-330.8662752 916.28399945 -328.14266108 912.51191443 -325.41890657 908.73992962 C-322.13496696 904.19217383 -318.85045612 899.64483587 -315.56343782 895.09930462 C-310.66545323 888.32452219 -305.77146569 881.5473486 -300.91890657 874.73992962 C-295.51092538 867.15333604 -290.05163529 859.60402821 -284.59224641 852.05438274 C-281.8662752 848.28399945 -279.14266108 844.51191443 -276.41890657 840.73992962 C-273.13496696 836.19217383 -269.85045612 831.64483587 -266.56343782 827.09930462 C-261.66545323 820.32452219 -256.77146569 813.5473486 -251.91890657 806.73992962 C-246.51092538 799.15333604 -241.05163529 791.60402821 -235.59224641 784.05438274 C-232.8662752 780.28399945 -230.14266108 776.51191443 -227.41890657 772.73992962 C-224.13496696 768.19217383 -220.85045612 763.64483587 -217.56343782 759.09930462 C-212.66545323 752.32452219 -207.77146569 745.5473486 -202.91890657 738.73992962 C-196.40151161 729.59699347 -189.81212685 720.50600376 -183.23238313 711.40789837 C-177.77739928 703.86410896 -172.3226346 696.32055664 -166.91890657 688.73992962 C-161.51092538 681.15333604 -156.05163529 673.60402821 -150.59224641 666.05438274 C-147.86627517 662.28399941 -145.14270604 658.51188199 -142.41890657 654.73992962 C-141.34208955 653.24903994 -140.26526661 651.75815454 -139.18843782 650.26727337 C-136.95616685 647.17648831 -134.72446979 644.08528985 -132.49312532 640.99383587 C-131.92593782 640.20815227 -131.35875032 639.42246868 -130.77437532 638.61297649 C-129.71041621 637.1391315 -128.64659927 635.66518386 -127.58296907 634.19110149 C-123.37574304 628.36359912 -119.14649659 622.5528659 -114.91890657 616.73992962 C-238.00890657 616.73992962 -361.09890657 616.73992962 -487.91890657 616.73992962 C-485.6704789 611.11886043 -485.6704789 611.11886043 -483.23140657 608.20867962 C-482.70281038 607.56986858 -482.17421419 606.93105755 -481.62959993 606.2728886 C-481.06507112 605.60201214 -480.50054231 604.93113567 -479.91890657 604.23992962 C-478.73133928 602.80486381 -477.54515576 601.36865183 -476.36031282 599.93133587 C-475.77395051 599.22122356 -475.18758821 598.51111126 -474.58345735 597.7794804 C-472.27941629 594.95637113 -470.065218 592.0758212 -467.85640657 589.17742962 C-463.79609989 583.85566843 -459.64337886 578.61714607 -455.45210969 573.39813274 C-452.06325491 569.17616641 -448.69808605 564.9368312 -445.35640657 560.67742962 C-444.90515413 560.10242718 -444.45390169 559.52742473 -443.98897493 558.93499798 C-441.73726291 556.06379291 -439.48908122 553.1898575 -437.24312532 550.31414837 C-432.34351736 544.04919248 -427.38739717 537.83752623 -422.35640657 531.67742962 C-417.59033465 525.83920092 -412.94273875 519.92813504 -408.36812532 513.93914837 C-401.31048807 504.70031779 -394.04016567 495.63828848 -386.68746126 486.6334843 C-383.34551606 482.52902755 -380.06633586 478.38583023 -376.85640657 474.17742962 C-372.79609989 468.85566843 -368.64337886 463.61714607 -364.45210969 458.39813274 C-361.0632557 454.17616739 -357.69800598 449.93689324 -354.35640657 445.67742962 C-353.90587923 445.10315227 -353.45535188 444.52887493 -352.99117219 443.93719524 C-351.63322736 442.20518239 -350.27593516 440.47266042 -348.91890657 438.73992962 C-342.78661375 430.90987152 -336.62334999 423.10723514 -330.40181673 415.34783977 C-327.03183508 411.14108286 -323.68418507 406.91764435 -320.35640657 402.67742962 C-319.90507356 402.10234661 -319.45374055 401.5272636 -318.98873079 400.93475384 C-316.73714322 398.06359649 -314.48901086 395.18976742 -312.24312532 392.31414837 C-307.34351736 386.04919248 -302.38739717 379.83752623 -297.35640657 373.67742962 C-292.59033465 367.83920092 -287.94273875 361.92813504 -283.36812532 355.93914837 C-276.31048807 346.70031779 -269.04016567 337.63828848 -261.68746126 328.6334843 C-258.34551606 324.52902755 -255.06633586 320.38583023 -251.85640657 316.17742962 C-247.79609989 310.85566843 -243.64337886 305.61714607 -239.45210969 300.39813274 C-236.0632557 296.17616739 -232.69800598 291.93689324 -229.35640657 287.67742962 C-228.90587923 287.10315227 -228.45535188 286.52887493 -227.99117219 285.93719524 C-226.63322736 284.20518239 -225.27593516 282.47266042 -223.91890657 280.73992962 C-217.78661375 272.90987152 -211.62334999 265.10723514 -205.40181673 257.34783977 C-200.19479311 250.84789856 -195.05401744 244.29672943 -189.91890657 237.73992962 C-183.78661375 229.90987152 -177.62334999 222.10723514 -171.40181673 214.34783977 C-168.03183508 210.14108286 -164.68418507 205.91764435 -161.35640657 201.67742962 C-160.90507356 201.10234661 -160.45374055 200.5272636 -159.98873079 199.93475384 C-157.73714322 197.06359649 -155.48901086 194.18976742 -153.24312532 191.31414837 C-148.34351736 185.04919248 -143.38739717 178.83752623 -138.35640657 172.67742962 C-133.59033465 166.83920092 -128.94273875 160.92813504 -124.36812532 154.93914837 C-117.31048807 145.70031779 -110.04016567 136.63828848 -102.68746126 127.6334843 C-99.34551606 123.52902755 -96.06633586 119.38583023 -92.85640657 115.17742962 C-88.79609989 109.85566843 -84.64337886 104.61714607 -80.45210969 99.39813274 C-77.0632557 95.17616739 -73.69800598 90.93689324 -70.35640657 86.67742962 C-69.90587923 86.10315227 -69.45535188 85.52887493 -68.99117219 84.93719524 C-67.63322736 83.20518239 -66.27593516 81.47266042 -64.91890657 79.73992962 C-58.78661375 71.90987152 -52.62334999 64.10723514 -46.40181673 56.34783977 C-43.03183508 52.14108286 -39.68418507 47.91764435 -36.35640657 43.67742962 C-35.90507356 43.10234661 -35.45374055 42.5272636 -34.98873079 41.93475384 C-32.73714322 39.06359649 -30.48901086 36.18976742 -28.24312532 33.31414837 C-27.34368469 32.16417489 -26.44394417 31.01443592 -25.54390657 29.86492962 C-25.10030794 29.29830608 -24.6567093 28.73168255 -24.19966829 28.1478886 C-19.98552656 22.78600503 -15.67582741 17.50277347 -11.33345735 12.24432415 C-10.81638216 11.61381145 -10.29930696 10.98329876 -9.76656282 10.33367962 C-9.31289339 9.78389446 -8.85922395 9.2341093 -8.39180696 8.66766399 C-6.75868828 6.62929051 -6.75868828 6.62929051 -5.22635055 3.66478765 C-2.91890657 0.73992962 -2.91890657 0.73992962 0 0 Z " fill="#39C103" transform="translate(1078.918906569481,485.26007038354874)"/>
<path d="M0 0 C2.45478923 0.19789366 4.91020767 0.38635104 7.36578369 0.57421875 C87.72232577 6.79868852 167.2765434 21.89272655 244.05853271 46.4732666 C245.53740315 46.94669715 247.01665194 47.4189474 248.49627686 47.89001465 C283.51986837 59.04062628 317.7485057 72.12553003 351.27740479 87.18359375 C352.82403809 87.87122803 352.82403809 87.87122803 354.4019165 88.57275391 C383.38112536 101.48511547 412.20536086 115.50957091 439.56207275 131.59716797 C442.57982837 133.36028395 445.61633589 135.08799019 448.65631104 136.8125 C479.2045006 154.18246779 508.83832846 173.52580316 537.27740479 194.18359375 C538.01926025 194.72113281 538.76111572 195.25867188 539.52545166 195.8125 C555.13423933 207.14791404 570.41560815 218.88417585 585.27740479 231.18359375 C587.04808597 232.62128116 588.81892371 234.05877577 590.58990479 235.49609375 C599.94842491 243.15671094 609.10266335 251.05241605 618.05865479 259.1796875 C620.07048872 260.99671357 622.10400912 262.78303767 624.15240479 264.55859375 C629.0428341 268.82554203 633.82078195 273.21389376 638.58502197 277.62060547 C639.708629 278.65830486 640.8342675 279.69380912 641.9619751 280.72705078 C651.48679606 289.45858485 660.69486894 298.49539439 669.83990479 307.62109375 C670.40461487 308.18321564 670.96932495 308.74533752 671.55114746 309.32449341 C677.15612289 314.90918238 682.73309729 320.48225334 687.84161377 326.53344727 C689.41063177 328.33671077 691.07111206 330.01035331 692.77740479 331.68359375 C695.79154061 334.65094698 698.57657811 337.75704667 701.33599854 340.9609375 C703.5654454 343.51336258 705.8574186 346.00246889 708.15240479 348.49609375 C712.2026177 352.93610159 716.032746 357.50293656 719.80474854 362.1796875 C722.68624111 365.68026853 725.6648504 369.086167 728.65240479 372.49609375 C734.26385122 378.92597751 739.59500018 385.52542231 744.8057251 392.28222656 C746.38849469 394.32711866 747.98420003 396.36143695 749.58209229 398.39453125 C778.87948926 435.73192807 805.4624537 475.13650354 829.27740479 516.18359375 C829.76918213 517.02680176 830.26095947 517.87000977 830.76763916 518.73876953 C871.65515856 588.92719152 903.47826525 663.66396132 970.27740479 1019.18359375 C970.28836182 1019.92127991 970.29931885 1020.65896606 970.31060791 1021.41900635 C971.66726915 1117.240688 960.53474975 1212.31323393 917.27740479 1370.18359375 C916.92839111 1371.24707031 916.92839111 1371.24707031 916.57232666 1372.33203125 C903.42312892 1412.33837224 887.20181872 1451.08837937 869.27740479 1489.18359375 C868.78240479 1490.2420752 868.28740479 1491.30055664 867.77740479 1492.39111328 C861.24682976 1506.33448619 854.29764765 1519.94759373 846.81158447 1533.40039062 C845.23631655 1536.2581332 843.69397556 1539.13150228 842.16021729 1542.01171875 C834.33231345 1556.69535515 825.99528134 1571.01097002 817.27740479 1585.18359375 C816.51460205 1586.42520264 816.51460205 1586.42520264 815.73638916 1587.69189453 C796.00169904 1619.67731413 774.38666816 1650.55155442 751.27740479 1680.18359375 C750.38674794 1681.33330866 749.49612395 1682.48304903 748.60552979 1683.6328125 C743.19532917 1690.59248536 737.62839853 1697.38816609 731.90240479 1704.08984375 C729.43824514 1706.97910695 727.04079479 1709.91877833 724.65240479 1712.87109375 C721.02905983 1717.32263183 717.25776606 1721.6074183 713.39459229 1725.8515625 C711.49689309 1727.94183264 709.63007064 1730.0534549 707.77740479 1732.18359375 C703.66430598 1736.89906858 699.48250391 1741.55007543 695.27740479 1746.18359375 C694.39310791 1747.16199219 693.50881104 1748.14039063 692.59771729 1749.1484375 C685.02548338 1757.47242278 677.12417256 1765.44238787 669.12335205 1773.35351562 C665.43286773 1777.01227379 661.76663787 1780.69509009 658.10447693 1784.38217163 C655.95773329 1786.54249439 653.80815134 1788.69998463 651.6585083 1790.85742188 C650.53390285 1791.98705295 649.41019696 1793.11758035 648.28741455 1794.24902344 C642.66016477 1799.91837234 637.05743944 1805.54750953 630.97442627 1810.73388672 C628.39949795 1812.93355934 625.94293681 1815.2503849 623.46490479 1817.55859375 C618.76365293 1821.90684037 613.90491144 1825.99630594 608.91412354 1830.01171875 C606.3532045 1832.12115724 603.90617024 1834.31247023 601.46490479 1836.55859375 C597.00540525 1840.62232154 592.34216751 1844.34243352 587.57745361 1848.03564453 C583.8611895 1850.92090861 580.23516345 1853.88217641 576.65240479 1856.93359375 C568.97067971 1863.38093803 560.90216188 1869.31213844 552.84576416 1875.27978516 C550.41781804 1877.07951176 547.99549788 1878.88655021 545.57427979 1880.6953125 C525.37596598 1895.73966242 504.59929913 1909.78407076 483.27740479 1923.18359375 C482.37812256 1923.75174805 481.47884033 1924.31990234 480.55230713 1924.90527344 C458.68590998 1938.70743834 436.2217978 1951.43459456 413.37652588 1963.54003906 C410.41864677 1965.10868899 407.46697899 1966.68853585 404.51568604 1968.26953125 C389.7034901 1976.15539207 374.57562197 1983.29572857 359.27740479 1990.18359375 C358.33320679 1990.6092865 358.33320679 1990.6092865 357.36993408 1991.0435791 C325.59313204 2005.35340879 293.268744 2017.96176276 260.27740479 2029.18359375 C259.25927704 2029.5313385 259.25927704 2029.5313385 258.22058105 2029.8861084 C169.99306038 2059.99426216 76.95342978 2077.10300635 -389.72259521 2034.18359375 C-390.46660583 2033.94576172 -391.21061646 2033.70792969 -391.97717285 2033.46289062 C-434.67206423 2019.80089363 -476.19909524 2003.35381237 -516.72259521 1984.18359375 C-517.73950439 1983.70599609 -518.75641357 1983.22839844 -519.80413818 1982.73632812 C-594.58283393 1947.58831975 -665.10869007 1903.08308519 -728.96673584 1850.62353516 C-730.53195114 1849.33993674 -732.10341221 1848.06396303 -733.67572021 1846.7890625 C-743.85469753 1838.52980459 -753.79679891 1829.99632936 -763.50384521 1821.1875 C-765.51567915 1819.37047393 -767.54919955 1817.58414983 -769.59759521 1815.80859375 C-774.48645656 1811.54301354 -779.26305058 1807.15622085 -784.02581787 1802.75097656 C-785.15640921 1801.70660298 -786.28889795 1800.66427967 -787.42327881 1799.62402344 C-796.7644755 1791.05234728 -805.81181403 1782.19958874 -814.78509521 1773.24609375 C-815.32588715 1772.70789001 -815.86667908 1772.16968628 -816.42385864 1771.61517334 C-821.88157406 1766.17809456 -827.29131834 1760.73953608 -832.26922607 1754.85131836 C-833.8450711 1753.04305407 -835.51038588 1751.36259751 -837.22259521 1749.68359375 C-840.23673104 1746.71624052 -843.02176854 1743.61014083 -845.78118896 1740.40625 C-848.01063583 1737.85382492 -850.30260903 1735.36471861 -852.59759521 1732.87109375 C-856.74062743 1728.33318857 -860.64639936 1723.6521534 -864.50384521 1718.87109375 C-866.69534789 1716.21659755 -868.96507204 1713.6635849 -871.28509521 1711.12109375 C-875.6592147 1706.30880686 -879.71502029 1701.3027588 -883.72259521 1696.18359375 C-884.93689209 1694.64445312 -884.93689209 1694.64445312 -886.17572021 1693.07421875 C-888.50800612 1690.11712824 -890.83167894 1687.15338215 -893.152771 1684.1875 C-894.24094647 1682.79842623 -895.33056456 1681.41048183 -896.42132568 1680.0234375 C-903.66508469 1670.81102626 -910.7666052 1661.54313144 -917.48626709 1651.94091797 C-918.74622302 1650.15000905 -920.02154096 1648.37097035 -921.30072021 1646.59375 C-952.3469764 1603.30273086 -979.42803566 1557.56432519 -1003.72259521 1510.18359375 C-1004.27705322 1509.10335938 -1004.83151123 1508.023125 -1005.402771 1506.91015625 C-1019.68890577 1478.97497653 -1032.29575946 1450.39573945 -1043.72259521 1421.18359375 C-1044.11417816 1420.18317047 -1044.11417816 1420.18317047 -1044.51367188 1419.16253662 C-1060.17576283 1379.03687045 -1073.31445713 1337.97747005 -1083.72259521 1296.18359375 C-1084.00332886 1295.06008514 -1084.00332886 1295.06008514 -1084.28973389 1293.91387939 C-1098.7055867 1236.09060855 -1107.99444333 1177.29349786 -1112.47259521 1117.87109375 C-1112.53185181 1117.08657837 -1112.5911084 1116.30206299 -1112.65216064 1115.49377441 C-1113.05529843 1110.05961522 -1113.40669057 1104.62349767 -1113.72259521 1099.18359375 C-1113.77098541 1098.36095032 -1113.81937561 1097.53830688 -1113.86923218 1096.69073486 C-1114.90627128 1078.3639868 -1114.9241025 1060.03292842 -1114.91009521 1041.68359375 C-1114.90982834 1040.89917782 -1114.90956146 1040.11476189 -1114.9092865 1039.30657578 C-1114.8988678 1014.88052906 -1114.63999027 990.5456023 -1112.72259521 966.18359375 C-1112.59235933 964.47412319 -1112.46215209 962.76465045 -1112.33197021 961.05517578 C-1105.32554916 870.50823444 -1086.84725952 781.53392652 -978.95697021 524.6875 C-976.68254885 520.83711712 -974.46513998 516.96426543 -972.30999756 513.04614258 C-956.8799988 485.0052992 -938.52494058 458.06832389 -919.72259521 432.18359375 C-919.18505615 431.44173828 -918.64751709 430.69988281 -918.09368896 429.93554688 C-905.9399583 413.1999428 -893.25317077 396.91345044 -880.14202881 380.91894531 C-878.87810903 379.37371969 -877.62205732 377.82206594 -876.36712646 376.26953125 C-867.64216734 365.49444512 -858.52496136 355.04482199 -849.13665771 344.84375 C-847.2270119 342.73943156 -845.35300884 340.61526932 -843.4899292 338.47021484 C-832.01524207 325.34792567 -819.70386438 313.00394843 -807.36785889 300.69848633 C-804.76031547 298.09636554 -802.15824457 295.48885622 -799.55657959 292.88085938 C-797.87395787 291.19889758 -796.19102644 289.51724554 -794.50775146 287.8359375 C-793.74302017 287.06918198 -792.97828888 286.30242645 -792.19038391 285.51243591 C-788.0852672 281.42500186 -783.89929087 277.49572037 -779.50134277 273.72422791 C-776.55610304 271.17325494 -773.74381912 268.48191047 -770.91009521 265.80859375 C-765.88570821 261.10206101 -760.7327613 256.65501311 -755.35540771 252.3515625 C-752.61290368 250.09326912 -750.01321931 247.72578041 -747.41009521 245.30859375 C-742.85770003 241.12374322 -738.13800053 237.27298648 -733.25311279 233.49169922 C-729.47251449 230.56462042 -725.74751568 227.58264803 -722.05584717 224.54418945 C-706.47929207 211.73300207 -690.14963816 199.87466309 -673.72259521 188.18359375 C-672.91290283 187.60722168 -672.10321045 187.03084961 -671.26898193 186.43701172 C-660.63045805 178.88343293 -649.88894784 171.53965992 -638.87200928 164.54882812 C-636.64873665 163.13668132 -634.43163386 161.71517133 -632.21478271 160.29296875 C-558.51311071 113.18188631 -478.95495422 75.72522599 -149.19989014 0.375 C-146.8938345 0.19682442 -144.58848338 0.01137015 -142.28314209 -0.17578125 C-95.45500379 -3.89803783 -46.8181014 -3.79873594 0 0 Z M-158.72259521 54.18359375 C-159.6459668 54.26845032 -160.56933838 54.35330688 -161.52069092 54.44073486 C-250.55936472 62.70345933 -338.43318748 82.3010012 -479.72259521 138.18359375 C-480.96266095 138.75427283 -482.20290169 139.32457178 -483.44329834 139.89453125 C-542.85293171 167.21150546 -600.10038388 199.6133439 -652.65814209 238.65625 C-654.91429397 240.32541818 -657.18457657 241.97411273 -659.45697021 243.62109375 C-668.50701418 250.20039522 -677.32326241 256.98545203 -685.95697021 264.1015625 C-689.51474387 267.03079614 -693.14186717 269.86195343 -696.78509521 272.68359375 C-703.79103246 278.13421493 -710.47804483 283.93115051 -717.14105225 289.79296875 C-719.098861 291.51443814 -721.06749864 293.22332872 -723.03509521 294.93359375 C-726.73598005 298.17688545 -730.3872735 301.47458625 -734.03509521 304.77734375 C-736.20587436 306.72094834 -738.39227119 308.6416066 -740.58978271 310.5546875 C-753.35845568 321.71759408 -765.34940412 333.70728726 -777.34759521 345.68359375 C-778.0058429 346.33925323 -778.66409058 346.99491272 -779.34228516 347.67044067 C-788.54783874 356.81197859 -788.54783874 356.81197859 -797.23187256 366.44335938 C-799.95448586 369.62167376 -802.85285806 372.63862064 -805.72259521 375.68359375 C-810.48937978 380.76986622 -815.19191742 385.88483967 -819.72259521 391.18359375 C-820.62059076 392.21653021 -821.5190759 393.24904115 -822.41790771 394.28125 C-827.95504046 400.6623424 -833.33475269 407.13084703 -838.51556396 413.8046875 C-841.41016513 417.52984184 -844.36055574 421.20055007 -847.35760498 424.84375 C-854.83700074 433.94339884 -861.94548921 443.29533682 -868.94085693 452.77099609 C-870.05641765 454.28154295 -871.17478827 455.7900232 -872.29730225 457.29541016 C-900.66110008 495.3521065 -925.5606037 536.24816584 -947.72259521 578.18359375 C-948.26947998 579.21033203 -948.81636475 580.23707031 -949.37982178 581.29492188 C-989.93010359 657.53412607 -1019.46244563 739.28174453 -1054.72259521 917.18359375 C-1054.81262817 917.89207458 -1054.90266113 918.60055542 -1054.99542236 919.33050537 C-1056.46207689 930.92769737 -1057.68425769 942.54037643 -1058.72259521 954.18359375 C-1058.83697937 955.46000732 -1058.83697937 955.46000732 -1058.95367432 956.76220703 C-1063.88634908 1012.76149933 -1063.88880774 1070.20358693 -1058.72259521 1126.18359375 C-1058.63538208 1127.1367749 -1058.54816895 1128.08995605 -1058.45831299 1129.07202148 C-1050.02619225 1220.31461038 -1029.81368486 1310.40449002 -960.72259521 1477.18359375 C-960.12974519 1478.39660971 -959.53697406 1479.60966423 -958.9442749 1480.82275391 C-951.22094537 1496.60863402 -943.21048928 1512.16027745 -934.36712646 1527.35644531 C-932.64222319 1530.32176299 -930.93191274 1533.29520555 -929.22259521 1536.26953125 C-912.57532594 1565.14217462 -894.31701935 1593.21604356 -874.72259521 1620.18359375 C-874.169104 1620.94671875 -873.61561279 1621.70984375 -873.04534912 1622.49609375 C-863.36042483 1635.81853576 -853.36181991 1648.83700854 -842.89056396 1661.55078125 C-841.44945149 1663.30088901 -840.01450118 1665.05608987 -838.58587646 1666.81640625 C-830.23488648 1677.10146752 -821.62661007 1687.15843363 -812.72259521 1696.96875 C-810.92655993 1698.95771877 -809.16306218 1700.96922569 -807.41009521 1702.99609375 C-800.14053318 1711.32825998 -792.59711231 1719.39031976 -784.72259521 1727.15234375 C-782.86327238 1729.04071851 -781.12871437 1730.98002128 -779.41009521 1732.99609375 C-772.80496171 1740.67648154 -765.49389925 1747.78554105 -757.78118896 1754.34375 C-755.1575942 1756.68855671 -752.69291051 1759.18010013 -750.22259521 1761.68359375 C-746.56267518 1765.38769167 -742.83315726 1768.93647143 -738.87103271 1772.31640625 C-736.69052819 1774.21146291 -734.5687699 1776.16311467 -732.45159912 1778.12841797 C-727.34371306 1782.86741014 -722.12254295 1787.37616454 -716.69134521 1791.74609375 C-713.19976877 1794.61286178 -709.80749975 1797.58152693 -706.41009521 1800.55859375 C-699.98175009 1806.1688006 -693.3837831 1811.49827457 -686.62835693 1816.70751953 C-684.56932236 1818.30230854 -682.52230632 1819.91171666 -680.47650146 1821.5234375 C-670.79180589 1829.13693176 -660.95156265 1836.48769384 -650.91204834 1843.62646484 C-648.78821907 1845.13692237 -646.66924902 1846.65399612 -644.55072021 1848.171875 C-569.71437597 1901.59737238 -487.11178897 1944.23718094 89.53811646 2017.21395874 C173.99717177 2002.99366901 256.90226225 1978.64786416 338.27740479 1941.18359375 C339.62308887 1940.56392349 340.9687929 1939.94429655 342.31451416 1939.32470703 C399.58237978 1912.91474304 454.1987203 1881.2147294 505.27740479 1844.18359375 C506.02361084 1843.6431543 506.76981689 1843.10271484 507.53863525 1842.54589844 C526.03776902 1829.11077335 544.02950873 1815.08350413 561.44268799 1800.26660156 C564.84741515 1797.37407213 568.29497901 1794.5451947 571.77740479 1791.74609375 C576.53231528 1787.87969208 581.04402123 1783.79830507 585.51177979 1779.60766602 C588.30298447 1776.99091163 591.12801975 1774.42898451 594.019104 1771.92260742 C606.52935313 1760.99546221 618.32927181 1749.29487884 630.05352783 1737.5378418 C632.36593202 1735.22000537 634.68373377 1732.90766071 637.00201416 1730.59570312 C638.50168435 1729.09537311 640.00104484 1727.59473345 641.50006104 1726.09375 C642.17932144 1725.41651382 642.85858185 1724.73927765 643.5584259 1724.04151917 C647.43096016 1720.15016328 651.12771389 1716.15710881 654.70600891 1711.99310303 C657.27032047 1709.04022169 659.9691186 1706.21540997 662.65240479 1703.37109375 C667.37613588 1698.32793557 671.84574769 1693.15668399 676.16802979 1687.76171875 C678.29725625 1685.15933085 680.51189836 1682.66783873 682.77740479 1680.18359375 C687.48163866 1675.00812401 691.89455966 1669.63215485 696.27740479 1664.18359375 C697.17951141 1663.07402592 698.08186562 1661.96465934 698.98443604 1660.85546875 C712.02390782 1644.76562071 724.27107383 1628.05360867 736.27740479 1611.18359375 C736.85377686 1610.37390137 737.43014893 1609.56420898 738.02398682 1608.72998047 C746.07155502 1597.39571774 753.84583474 1585.93026898 761.27740479 1574.18359375 C761.83508545 1573.30783691 762.39276611 1572.43208008 762.96734619 1571.52978516 C777.74008866 1548.30974547 791.38346828 1524.4935967 804.27740479 1500.18359375 C804.84314209 1499.12060059 805.40887939 1498.05760742 805.99176025 1496.96240234 C839.139355 1434.50438212 865.12147695 1367.51419444 883.27740479 1299.18359375 C883.47831726 1298.4336615 883.67922974 1297.68372925 883.88623047 1296.91107178 C901.91401929 1229.59962645 912.51323815 1160.74375213 916.27740479 1091.18359375 C916.33525146 1090.19649414 916.39309814 1089.20939453 916.45269775 1088.19238281 C921.71486521 996.22156286 912.51126859 902.32883467 888.27740479 801.18359375 C888.09778198 800.45756958 887.91815918 799.73154541 887.73309326 798.98352051 C868.29727184 720.68770407 838.47183277 645.97754317 783.93902588 543.97167969 C782.30027221 541.22196371 780.68560102 538.45953989 779.07818604 535.69140625 C766.16555599 513.50266708 752.14498028 492.10760604 737.27740479 471.18359375 C736.43314941 469.9917749 736.43314941 469.9917749 735.57183838 468.77587891 C723.1897369 451.33090675 710.2117979 434.34767568 696.62164307 417.82763672 C694.79343817 415.59168834 693.00430357 413.32565545 691.21490479 411.05859375 C683.90246594 401.89490457 676.15495056 393.0778049 668.27740479 384.3984375 C666.4813695 382.40946873 664.71787175 380.39796181 662.96490479 378.37109375 C655.69287961 370.03610434 648.14656951 361.97188069 640.26959229 354.20703125 C638.4528567 352.36179786 636.76404723 350.4700826 635.08990479 348.49609375 C627.8198057 340.03695976 619.710703 332.08869224 611.19927979 324.88671875 C608.78766547 322.74959712 606.54201221 320.47565096 604.27740479 318.18359375 C600.78699038 314.65604728 597.23096165 311.30974901 593.46099854 308.0859375 C591.26959114 306.17678651 589.13428751 304.21368059 587.00421143 302.23657227 C581.89682786 297.49857283 576.67654734 292.99037512 571.24615479 288.62109375 C567.75457834 285.75432572 564.36230932 282.78566057 560.96490479 279.80859375 C554.53655966 274.1983869 547.93859267 268.86891293 541.1831665 263.65966797 C539.12413193 262.06487896 537.07711589 260.45547084 535.03131104 258.84375 C524.64067079 250.67487882 514.0562894 242.83136051 503.27740479 235.18359375 C502.51266846 234.63767578 501.74793213 234.09175781 500.96002197 233.52929688 C464.62444711 207.61203707 426.49627877 184.60844059 387.09234619 163.68505859 C384.67033473 162.3931791 382.25838409 161.08560645 379.85162354 159.765625 C367.24501106 152.88929092 354.17918434 146.9767512 341.1184082 141.0246582 C339.31439835 140.2004943 337.51291313 139.37081134 335.71148682 138.54101562 C307.48603108 125.54095814 278.65299127 114.31722402 249.27740479 104.18359375 C248.10210205 103.77544434 246.92679932 103.36729492 245.71588135 102.94677734 C225.44401448 95.93506415 204.9797548 89.78714681 184.27740479 84.18359375 C183.57093811 83.99194641 182.86447144 83.80029907 182.13659668 83.60284424 C118.34105489 66.35687063 52.26037825 55.86175503 -13.72259521 52.18359375 C-14.37438751 52.14262573 -15.02617981 52.10165771 -15.69772339 52.05944824 C-34.12639281 50.90959476 -52.57824809 50.9380555 -71.03509521 50.93359375 C-71.87412006 50.93315189 -72.71314491 50.93271004 -73.57759476 50.93225479 C-102.05346915 50.92441175 -130.35083068 51.54591223 -158.72259521 54.18359375 Z " fill="#39C103" transform="translate(1114.7225952148438,1.81640625)"/>
</svg>
