<?xml version="1.0" encoding="UTF-8"?>
<svg version="1.1" xmlns="http://www.w3.org/2000/svg" width="462" height="770">
<path d="M0 0 C1.64004728 0.0003377 3.28009764 -0.00239689 4.9201355 -0.00796509 C9.37204783 -0.01424431 13.82266506 0.0228249 18.27431488 0.06785774 C22.95381964 0.10803559 27.63333759 0.10908604 32.31298828 0.11462402 C40.1883781 0.12934502 48.06329205 0.1694222 55.93847656 0.22753906 C66.97172151 0.30893345 78.00476802 0.34581986 89.03826141 0.37305546 C97.67136966 0.39586309 106.3044423 0.42976366 114.9375 0.46679688 C116.30566864 0.47265525 116.30566864 0.47265525 117.70147705 0.47863197 C156.82029178 0.65352675 156.82029178 0.65352675 176.0625 1.81054688 C171.71079594 8.3913892 171.71079594 8.3913892 169.14453125 11.29101562 C168.61714355 11.89187988 168.08975586 12.49274414 167.54638672 13.11181641 C166.9948291 13.73427246 166.44327148 14.35672852 165.875 14.99804688 C161.25137664 20.27204873 156.72911028 25.60374117 152.31640625 31.05664062 C149.25024691 34.80298782 146.10192787 38.47740154 142.95678711 42.1574707 C139.84437899 45.82196404 136.92655073 49.56999908 134.18359375 53.51757812 C133.81363281 53.94425781 133.44367188 54.3709375 133.0625 54.81054688 C132.4025 54.81054688 131.7425 54.81054688 131.0625 54.81054688 C130.73958984 55.59558594 130.73958984 55.59558594 130.41015625 56.39648438 C128.52213604 59.77850318 126.0379736 62.52386398 123.5 65.43554688 C119.91676322 69.36875618 119.91676322 69.36875618 117.0625 73.81054688 C116.4025 73.81054688 115.7425 73.81054688 115.0625 73.81054688 C114.84851563 74.33390625 114.63453125 74.85726562 114.4140625 75.39648438 C112.51268865 78.79257987 110.00283722 81.52322276 107.4375 84.43554688 C106.34774142 85.68969884 105.25920363 86.9449126 104.171875 88.20117188 C103.64013672 88.81541016 103.10839844 89.42964844 102.56054688 90.0625 C97.63613368 95.80871879 92.99501172 101.77765291 88.58203125 107.92382812 C87.0625 109.81054688 87.0625 109.81054688 84.73046875 112.10351562 C81.71992971 115.15813284 79.15954101 118.40602252 76.5625 121.81054688 C73.28164704 126.11149697 69.92693862 130.00686987 66.0625 133.81054688 C64.28862939 135.83705967 62.53968196 137.87044477 60.8125 139.93554688 C60.33288818 140.50539307 59.85327637 141.07523926 59.35913086 141.66235352 C55.67906493 146.04536024 52.06300197 150.4789941 48.453125 154.91992188 C45.1346754 158.93242629 41.72390853 162.86322167 38.31518555 166.79907227 C35.55226615 170.00792712 32.92256919 173.25262733 30.4375 176.68554688 C29.65375 177.71679688 28.87 178.74804688 28.0625 179.81054688 C27.4025 179.81054688 26.7425 179.81054688 26.0625 179.81054688 C25.794375 180.38804687 25.52625 180.96554687 25.25 181.56054688 C24.0625 183.81054688 24.0625 183.81054688 21.0625 187.81054688 C81.1225 187.81054688 141.1825 187.81054688 203.0625 187.81054688 C203.3925 188.80054688 203.7225 189.79054688 204.0625 190.81054688 C197.2256653 197.19758982 189.70405712 202.66325896 182.20019531 208.22558594 C169.31166883 217.78158342 156.55838325 227.4730561 144.15161133 237.64941406 C137.14564167 243.39192913 130.01007564 248.86786069 122.671875 254.17773438 C119.10632001 256.76266579 115.60830176 259.42867634 112.125 262.12304688 C111.32449219 262.74095093 111.32449219 262.74095093 110.5078125 263.37133789 C108.18437769 265.16608912 105.8641366 266.96486374 103.546875 268.76757812 C102.47179687 269.59322266 102.47179687 269.59322266 101.375 270.43554688 C100.77300781 270.9021875 100.17101562 271.36882812 99.55078125 271.84960938 C98.0625 272.81054688 98.0625 272.81054688 96.0625 272.81054688 C96.0625 273.47054688 96.0625 274.13054687 96.0625 274.81054688 C94.03346601 276.51576724 92.0020749 278.11146555 89.875 279.68554688 C88.71452578 280.5575197 87.55436524 281.42991015 86.39453125 282.30273438 C85.83072754 282.72264648 85.26692383 283.14255859 84.68603516 283.57519531 C83.18034289 284.72087996 81.71869295 285.92382636 80.26171875 287.13085938 C78.0625 288.81054688 78.0625 288.81054688 76.0625 288.81054688 C76.0625 289.47054688 76.0625 290.13054687 76.0625 290.81054688 C74.19978377 292.40291673 72.34593897 293.86411335 70.375 295.31054688 C69.84455078 295.71402344 69.31410156 296.1175 68.76757812 296.53320312 C65.66233121 298.84213518 62.72583293 300.55998424 59.0625 301.81054688 C59.0625 302.47054688 59.0625 303.13054687 59.0625 303.81054688 C57.07289539 305.34950144 55.07865593 306.77538405 53 308.18554688 C46.71911307 312.53648855 40.74674109 317.17680291 34.86303711 322.05029297 C30.26984683 325.81054688 30.26984683 325.81054688 28.0625 325.81054688 C28.0625 326.47054688 28.0625 327.13054687 28.0625 327.81054688 C26.57226562 329.11645508 26.57226562 329.11645508 24.46875 330.61132812 C23.69378174 331.16965332 22.91881348 331.72797852 22.12036133 332.30322266 C21.27626709 332.90376465 20.43217285 333.50430664 19.5625 334.12304688 C13.18781077 338.73158586 6.93880336 343.42439167 0.875 348.43554688 C-4.60284044 352.94752473 -10.14998067 357.34441537 -15.8125 361.62304688 C-16.49723389 362.14527832 -17.18196777 362.66750977 -17.88745117 363.20556641 C-22.69715413 366.81054688 -22.69715413 366.81054688 -24.9375 366.81054688 C-24.9375 367.47054688 -24.9375 368.13054687 -24.9375 368.81054688 C-28.39903846 371.81054688 -28.39903846 371.81054688 -30.9375 371.81054688 C-31.14354806 327.02778276 -31.30211135 282.24506887 -31.39708797 237.46192409 C-31.40834418 232.17358989 -31.4199931 226.88525663 -31.43188477 221.59692383 C-31.43424556 220.54412223 -31.43660635 219.49132063 -31.43903869 218.40661595 C-31.47818914 201.36490492 -31.54914387 184.32346743 -31.63187516 167.28191861 C-31.71607104 149.79268064 -31.76603578 132.30358582 -31.78429645 114.81415349 C-31.79663908 104.02407772 -31.83560536 93.23477513 -31.9087482 82.44493739 C-31.95636192 75.04358114 -31.97069205 67.64262397 -31.9590124 60.24112573 C-31.95325356 55.97199611 -31.96201125 51.70421641 -32.01034927 47.43532753 C-32.05434046 43.52162668 -32.0562423 39.61017536 -32.02559005 35.69636814 C-32.02180548 34.28563822 -32.03306765 32.87476456 -32.06144864 31.46431508 C-32.26735553 20.59344192 -29.30913725 15.55821261 -21.9375 7.81054688 C-21.05065554 6.45156625 -20.18659976 5.07665702 -19.37109375 3.67370605 C-14.75700627 -1.57927391 -6.41656898 -0.10135506 0 0 Z " fill="#39C103" transform="translate(30.9375,214.189453125)"/>
<path d="M0 0 C80.72877656 -1.90697897 159.85330611 20.57122525 230 60 C231.15314697 60.64606201 231.15314697 60.64606201 232.32958984 61.30517578 C247.45864495 69.83283069 261.81382818 79.5791967 275.5546875 90.1953125 C277.99655807 92.0697923 277.99655807 92.0697923 280.8203125 93.6171875 C281.89925781 94.30167969 281.89925781 94.30167969 283 95 C283 95.66 283 96.32 283 97 C283.56332031 97.25394531 284.12664062 97.50789063 284.70703125 97.76953125 C287.30616832 99.16429816 289.40630971 100.81773211 291.6875 102.6875 C295.02662899 105.40608289 298.38856199 108.07660412 301.8125 110.6875 C305.13220049 113.26562691 308.09592266 115.95071879 311 119 C312.43263315 120.4631147 313.87069943 121.92091834 315.3125 123.375 C316.35857422 124.43847656 316.35857422 124.43847656 317.42578125 125.5234375 C319.51407597 127.53251011 321.63436374 129.42005984 323.83203125 131.3046875 C327.95349332 134.88492804 331.67948578 138.73691779 335.375 142.75 C336.0256543 143.4517334 336.67630859 144.1534668 337.34667969 144.87646484 C338.64348751 146.2769018 339.93846776 147.67903372 341.23144531 149.08300781 C342.748096 150.72695331 344.27355135 152.3617588 345.8046875 153.9921875 C351.81429979 160.46260074 357.28397227 167.266998 362.66064453 174.26220703 C363.93041062 175.90970886 365.21111954 177.54794034 366.49609375 179.18359375 C377.13748096 192.8215956 386.84256762 206.93246557 395.6887207 221.79956055 C396.60691357 223.34036715 397.5303768 224.87803964 398.45776367 226.41333008 C418.37153815 259.38900014 432.89079238 294.44783821 444.15380859 331.23876953 C444.66792576 332.9163994 445.18757962 334.59236342 445.71728516 336.26513672 C454.23036858 363.19427815 458.13512663 391.98138702 461 420 C461.08547592 420.79584 461.17095184 421.59167999 461.25901794 422.41163635 C461.9870606 429.64185735 462.19070025 436.81810379 462.23828125 444.08203125 C462.2480751 445.31783936 462.25786896 446.55364746 462.26795959 447.8269043 C462.29307362 451.82214408 462.30665777 455.81719528 462.3125 459.8125 C462.31365059 460.49390926 462.31480118 461.17531853 462.31598663 461.87737656 C462.34285456 484.78573894 461.54978591 507.33371106 458 530 C457.84017639 531.03211609 457.84017639 531.03211609 457.67712402 532.08508301 C450.29925654 579.25654751 436.1769295 626.34692358 414.14208984 668.79833984 C412.86332886 671.26346736 411.59821831 673.73542331 410.33203125 676.20703125 C405.2533891 686.06624625 400.00611025 695.6699954 394 705 C393.41734375 705.92683594 392.8346875 706.85367188 392.234375 707.80859375 C379.61051349 727.85323872 365.47489818 747.04327853 350 765 C348.94365356 766.29671631 348.94365356 766.29671631 347.8659668 767.61962891 C344.2538809 770.61970025 341.55791003 770.64945651 337.07421875 770.48828125 C336.32662796 770.48120651 335.57903717 770.47413177 334.80879211 770.46684265 C332.43398598 770.43897645 330.06158649 770.37626132 327.6875 770.3125 C326.07229982 770.28740668 324.45706246 770.26459531 322.84179688 770.24414062 C318.89361181 770.18917647 314.94721311 770.10296527 311 770 C311.33 769.34 311.66 768.68 312 768 C312.66 768 313.32 768 314 768 C314.66 766.68 315.32 765.36 316 764 C316.66 764 317.32 764 318 764 C318.2578125 763.42765625 318.515625 762.8553125 318.78125 762.265625 C320.11365942 759.78871005 321.65056118 757.8658834 323.5 755.75 C324.1084375 755.04359375 324.716875 754.3371875 325.34375 753.609375 C327 752 327 752 329 752 C329.24105469 751.44699219 329.48210937 750.89398437 329.73046875 750.32421875 C331.28330184 747.48133971 333.19660361 745.26777093 335.3125 742.8125 C352.65083875 722.3943035 367.54084553 700.12781917 381 677 C381.38478516 676.34547852 381.76957031 675.69095703 382.16601562 675.01660156 C393.31418151 655.95889409 402.46495174 635.74225239 410 615 C410.30856934 614.17097168 410.61713867 613.34194336 410.93505859 612.48779297 C417.07406798 595.94936877 421.73032674 579.09883301 426 562 C426.22171875 561.11441406 426.4434375 560.22882812 426.671875 559.31640625 C427.92292432 554.23613166 429.02259635 549.13977636 430 544 C430.1645166 543.13858398 430.3290332 542.27716797 430.49853516 541.38964844 C447.11821285 451.95179527 434.33227854 358.00361434 385 254 C384.56526367 253.19981445 384.13052734 252.39962891 383.68261719 251.57519531 C372.96363459 231.88615766 360.73349249 212.49110442 346.5546875 195.08984375 C345 193 345 193 345 191 C344.34 191 343.68 191 343 191 C341.44647478 189.11509661 339.99787607 187.22218563 338.5625 185.25 C334.48644166 179.77094507 330.13867938 174.70460243 325.40454102 169.78417969 C322 166.2004523 322 166.2004523 322 164 C320.68 163.34 319.36 162.68 318 162 C318 161.34 318 160.68 318 160 C317.34 160 316.68 160 316 160 C314.51953125 158.49609375 314.51953125 158.49609375 312.8125 156.4375 C307.71925763 150.46030647 302.24074762 145.13118026 296.29296875 140.01171875 C294.04940733 138.04334715 291.85623371 136.02667147 289.66967773 133.99536133 C283.98007944 128.71762269 278.16512065 123.72258545 272 119 C271.42797852 118.56075195 270.85595703 118.12150391 270.26660156 117.66894531 C256.96321841 107.48278828 243.36066464 97.7590492 228.95898438 89.17529297 C226.66643916 87.79988013 224.38882152 86.40091616 222.109375 85.00390625 C209.11431431 77.10756106 195.82882112 70.30735302 182 64 C180.38274221 63.25015159 178.76555116 62.5001592 177.1484375 61.75 C168.14158117 57.61449269 159.04743694 54.03807279 149.64990234 50.8984375 C146.57544746 49.85605736 143.51725998 48.77092145 140.45703125 47.6875 C94.8815024 31.76667005 48.12317053 25.36713553 0 24 C0 16.08 0 8.16 0 0 Z " fill="#39C103" transform="translate(0,0)"/>
</svg>
